<svg width="2769" height="1875" viewBox="0 0 2769 1875" fill="none" xmlns="http://www.w3.org/2000/svg">
<rect width="2769" height="1875" fill="white"/>
<path fill-rule="evenodd" clip-rule="evenodd" d="M947.687 242.484C1061.33 253.979 1168.86 292.069 1261.44 353.62C1275.28 362.821 1319.68 394.698 1324.14 398.631C1324.79 399.208 1317.93 403.809 1308.89 408.854C1282.54 423.566 1263.25 440.252 1240.63 467.855L1229.71 481.191L1210.27 467.549C930.801 271.352 548.386 357.901 380.58 655.323C342.876 722.156 316.737 805.855 311.035 878.066L310.041 890.603L314.945 892.188C388.748 916.038 532.243 935.788 702.723 945.559L719.776 946.532V1008.99V1071.46L701.994 1070.48C548.198 1062.01 421.534 1046.03 333.943 1024.05L314.66 1019.22L315.591 1025.88C324.024 1086.25 351.336 1162.76 385.039 1220.41C487.537 1395.72 667.235 1501.06 870.39 1504.9L909.948 1505.65V1567.41V1629.17L870.39 1628.29C424.917 1618.29 105.421 1212.56 202.438 780.031C278.679 440.14 601.288 207.452 947.687 242.484ZM2059.08 244.715C2462.23 277.176 2705.27 713.372 2521.91 1075.4C2434.82 1247.35 2252.21 1373.22 2070.54 1386.5L2064.74 1386.93L2064.37 1511.46L2064 1636H2002.31H1940.62V1510.59V1385.19L1927.92 1383.44C1871.32 1375.65 1809.55 1356.23 1755.72 1329.31C1726.91 1314.92 1697.33 1297.1 1697.87 1294.48C1699.31 1287.4 1739.58 1178.51 1740.76 1178.51C1741.57 1178.51 1749.14 1183.01 1757.59 1188.5C1812.12 1223.95 1863.12 1245.46 1919.58 1256.84L1939.9 1260.93L1940.26 753.65L1940.63 246.376L1952.61 245.507C1959.19 245.028 1966.86 244.423 1969.66 244.152C1982.11 242.971 2042.11 243.346 2059.08 244.715ZM1497.24 250.289C1685.09 278.726 1820.13 436.839 1820.13 628.345V651.348L1758.81 650.966L1697.47 650.59L1696.57 620.819C1692.84 497.723 1609.89 397.332 1493.05 374.531L1480.26 372.029L1453.13 351.917C1395.52 309.192 1351.57 276.822 1341.97 270.053L1331.96 262.985L1339.43 260.449C1352.92 255.862 1386.14 249.892 1414.39 246.988C1428.63 245.528 1479.04 247.537 1497.24 250.289ZM2064.02 816.355V1263.15L2072.36 1262.18C2193.41 1248.12 2315.04 1171.71 2385.44 1065.49C2564.74 794.972 2408.51 430.015 2088.8 372.543C2079.68 370.903 2070.37 369.562 2068.11 369.562H2064.02V816.355ZM1124.06 547.405C1131.25 552.033 1148.7 564.007 1162.85 574.014L1188.56 592.215L1187.7 612.688C1181.63 756.785 1291.11 873.897 1436.54 878.872L1463.03 879.776V941.508V1003.24L1435.09 1002.31C1241.93 995.852 1091.65 859.247 1066.53 667.29C1061.42 628.248 1066.59 559.295 1077.07 526.723L1078.6 521.949L1094.8 530.469C1103.71 535.153 1116.88 542.777 1124.06 547.405ZM1187.23 1250.76C1187.27 1324.94 1211.75 1386.43 1261.39 1437.1C1368.17 1546.08 1552.51 1534.59 1643.85 1413.27C1652.51 1401.78 1650.27 1401.92 1667.36 1411.82C1686.05 1422.64 1725.6 1442.26 1744.65 1450.14C1764.34 1458.3 1763.63 1457.11 1755.9 1468.74C1624.98 1665.72 1341.05 1692.68 1174.59 1523.94C1103.05 1451.42 1067.56 1366.58 1064.27 1260.21L1063.37 1230.8H1125.29H1187.21L1187.23 1250.76Z" fill="black"/>
</svg>
